<?xml version="1.0" encoding="utf-8"?>
<!-- Generator: Adobe Illustrator 20.0.0, SVG Export Plug-In . SVG Version: 6.00 Build 0)  -->
<svg version="1.1" id="Layer_1" xmlns="http://www.w3.org/2000/svg" xmlns:xlink="http://www.w3.org/1999/xlink" x="0px" y="0px"
	 viewBox="0 0 284.3 102.5" style="enable-background:new 0 0 284.3 102.5;" xml:space="preserve">
<style type="text/css">
	.st0{fill:#FFFFFF;}
</style>
<g>
	<path class="st0" d="M110.3,38.1l-2.6,5.4c-2.9-1.7-6.5-2.8-8.7-2.8c-1.8,0-3,0.7-3,2c0,4.7,14.4,2,14.4,11.9
		c0,5.4-4.8,8.3-10.9,8.3c-4.6,0-9.2-1.7-12.5-4.4l2.7-5.3c2.8,2.5,7,4.1,9.8,4.1c2.2,0,3.5-0.8,3.5-2.4c0-4.8-14.4-1.9-14.4-11.6
		c0-5,4.3-8.2,10.9-8.2C103.4,35,107.5,36.2,110.3,38.1z"/>
	<path class="st0" d="M132.6,48.9v13.7h-6.6v-2.4c-1.4,1.8-3.6,2.7-6.4,2.7c-4.5,0-7.2-2.7-7.2-6.6c0-4,2.8-6.3,8.1-6.3h5.5v-0.3
		c0-2.1-1.4-3.3-4.1-3.3c-1.8,0-4,0.6-6.3,1.8l-1.9-4.4c3.3-1.5,6.2-2.4,9.7-2.4C129.2,41.3,132.6,44.1,132.6,48.9z M126,55.5v-1.9
		h-4.2c-2,0-3,0.7-3,2.3c0,1.5,1.1,2.5,3,2.5C123.8,58.3,125.6,57.2,126,55.5z"/>
	<path class="st0" d="M145.3,41v1.5h4.7V47h-4.7v15.6h-6.7V47h-2.8v-4.4h2.8v-1.9c0-4.6,3.5-7.2,8-7.2c2.1,0,4.3,0.5,5.9,1.5
		l-2.4,4.7c-0.7-0.5-1.7-0.9-2.5-0.9C146.4,38.7,145.3,39.5,145.3,41z"/>
	<path class="st0" d="M171.8,53.9h-14.7c0.7,2.5,2.5,3.9,4.9,3.9c1.8,0,3.6-0.7,5-2.1l3.5,3.5c-2.1,2.3-5.3,3.7-9.1,3.7
		c-6.8,0-11.1-4.3-11.1-10.7c0-6.5,4.4-10.8,10.9-10.8C168.6,41.4,172.3,46.2,171.8,53.9z M165.4,50.3c0-2.6-1.6-4.2-4-4.2
		c-2.3,0-3.9,1.7-4.4,4.2H165.4z"/>
	<path class="st0" d="M198.8,39.4l-2.7,3.3c-2-2.1-4.8-3.5-7.6-3.5c-5.4,0-9.7,4.2-9.7,9.6c0,5.4,4.3,9.6,9.7,9.6
		c2.7,0,5.5-1.2,7.6-3.2l2.7,3c-2.8,2.7-6.7,4.5-10.5,4.5c-8,0-14.2-6-14.2-13.9c0-7.7,6.3-13.7,14.3-13.7
		C192.3,35.2,196.1,36.8,198.8,39.4z"/>
	<path class="st0" d="M207.7,46c1.4-2.8,3.9-4.3,7.2-4.3V46c-4.2-0.2-6.8,2.2-7.2,5.8v10.8h-4.5V41.9h4.5V46z"/>
	<path class="st0" d="M238.2,52.2c0,6.2-4.4,10.5-10.8,10.5c-6.4,0-10.8-4.3-10.8-10.5c0-6.3,4.4-10.5,10.8-10.5
		C233.8,41.7,238.2,46,238.2,52.2z M221.1,52.3c0,4,2.6,6.7,6.3,6.7c3.7,0,6.3-2.7,6.3-6.7c0-4-2.6-6.7-6.3-6.7
		C223.7,45.6,221.1,48.3,221.1,52.3z"/>
	<path class="st0" d="M261.6,62.6l-5.3-15.3L251,62.6h-4.6l-7.6-20.7h4.6l5.4,16.3l5.2-16.3h4.6l5.3,16.3l5.3-16.3h4.6l-7.5,20.7
		H261.6z"/>
</g>
<path class="st0" d="M70.1,33.6V20.7H13.2v33c0,3.5,0.9,6.9,2.7,9.9c1.8,3,3.9,5.9,6.2,8.5C29.7,51.8,48,36.7,70.1,33.6z"/>
<path class="st0" d="M78.5,33c-0.2,0-0.4,0-0.7,0c-2.7,1.1-5.2,2.5-7.7,4v0C53.5,47.2,42.2,65.4,41.5,86.2c0.1,0,0.1,0.1,0.2,0.1
	c10.8-4.7,19.8-12.6,25.8-22.6c1.8-3,2.7-6.4,2.7-9.9V41.2c4-3.2,8.4-5.9,13.2-8C81.7,33.1,80.1,33,78.5,33z"/>
</svg>
